<svg width="170" height="92" fill="none" xmlns="http://www.w3.org/2000/svg"><rect x=".5" y=".5" width="169" height="91" rx="3.5" stroke="#AFB1B8"/><path d="M59 61v2h-5v-6h3l1 1h1v2h-1l1 1Zm-4-1h2l1-1-1-1h-2v2Zm2 2h1v-1h-3v1h2ZM65 63l-2-2h-1v2h-1v-6h3l1 1 1 1v1l-2 1 2 2h-1Zm-3-3h2l1-1h-1v-1h-2v2ZM72 62h-3v1h-2l3-6h1l3 6h-2v-1Zm0-1-1-2-1 2h2ZM81 63h-1l-3-4v4h-1v-6h1l3 4v-4h1v6ZM89 62l-1 1h-4v-6h2l2 1 1 1a3 3 0 0 1 0 3Zm-2 0 1-2-1-1-1-1h-1v4h2ZM73 23s17 6 17 15v14s-18-6-17-14V23ZM105 49c4-2 8-4 12-4v-5c-5 2-9 5-12 9Z" fill="#AFB1B8"/><path d="M103 50c3-5 8-9 14-11V26s-25 9-25 21v21l3-1v-2c1-6 4-11 8-15Z" fill="#AFB1B8"/><path d="m101 58 1-4a19 19 0 0 0-5 12l5-2-1-6ZM102 58v6c7-4 15-10 15-17-5 0-10 2-13 5l-2 6Z" fill="#AFB1B8"/></svg>