<svg width="170" height="92" fill="none" xmlns="http://www.w3.org/2000/svg"><rect x=".5" y=".5" width="169" height="91" rx="3.5" stroke="#AFB1B8"/><path fill-rule="evenodd" clip-rule="evenodd" d="m70 23 7 7H64v32h34V50l7 6V23H70Zm28 26L78 30h20v19Zm-6 8H69V35h2v21h21v1Zm-17 9-1 2-1-2h-1l1 2v2h1v-2l1-2Zm1 4v-1h1l1 1-1-4h-1l-1 4h1Zm1-3v1h-1l1-1Zm3 1v1l1 1 1-1v1h1l-1-1v-1 1l-1-1 1-1a1 1 0 0 0 0-1h-2v2Zm1 1h-1l1-1v1Zm0-2Zm6 2v-1h-1v1h-1v-2h2v-1h-2l-1 1v2l1 1h1l1-1Zm3 0v-2a1 1 0 0 0-1-1h-1v1l-1 1 1 1 1 1 1-1Zm0-2v2h-2v-2h2Z" fill="#AFB1B8"/></svg>