<svg width="170" height="92" fill="none" xmlns="http://www.w3.org/2000/svg"><rect x=".5" y=".5" width="169" height="91" rx="3.5" stroke="#AFB1B8"/><path d="M85 43v-6l2-1h2l1 2v1h-2v-2h-1v6h1v-2h2v1l-1 1-2 1-2-1ZM92 43v-7h4l1 2v3l-1 2-2 1-2-1Zm3 0v-6h-1l-1 1v4l1 1a1 1 0 0 0 1 0ZM99 36h2l1 6 1-6h2v8h-1v-6l-1 6h-1l-2-6v6h-1v-8ZM107 36h3c2 0 2 1 2 2 0 2 0 2-2 2h-1v4h-2v-8Zm3 3h1v-2h-2v2h1ZM115 36h2l2 8h-2v-2h-2v2h-2l2-8Zm1 5v-3l-1 3h1ZM120 36h1l3 5v-5h1v8h-1l-2-5v5h-2v-8ZM128 41l-2-5h2l1 3 1-3h2l-2 5v3h-2v-3ZM88 48h-1v3h-1v-3h-1 3ZM92 51l-1-1h-2v1h-1l2-3h1l1 3Zm-2-1h1v-2h-1v2ZM95 51h1v-2h1v2a3 3 0 0 1-1 0h-2l-1-1v-1l1-1a3 3 0 0 1 2 0 2 2 0 0 1 1 0h-1a2 2 0 0 0-1 0h-1v3a1 1 0 0 0 1 0ZM101 51h2-3v-3h1v3ZM105 51h-1v-3h1v3ZM107 48l2 2v-2h1v3h-1l-2-3v3h-1v-3h1ZM114 48h-2v1h2v1h-2v1h2-3v-3h3ZM53 25l26 6v22l-26-6V25Zm-1-2v25l29 7V30l-29-7Z" fill="#AFB1B8"/><path d="m67 67-29-7V34l29 8v25Z" fill="#AFB1B8"/><path d="m52 24 25 7-10 9-26-6 11-10Zm0-1L38 34l29 8 14-12-29-7ZM69 65l12-10-12-3v13Z" fill="#AFB1B8"/></svg>