<svg width="44" height="44" fill="none" xmlns="http://www.w3.org/2000/svg"><path d="M44 22A22 22 0 0 1 6 38 22 22 0 0 1 22 0a22 22 0 0 1 22 22Z" fill="#fff" fill-opacity=".1"/><g clip-path="url(#a)" fill="#fff"><path d="M32 18v-3l-2-1-1-1-3-1a68 68 0 0 0-11 1l-1 1-1 1-1 3a68 68 0 0 0 1 11l1 1 1 1 3 1a73 73 0 0 0 11-1l3-2v-3a73 73 0 0 0 0-8Zm-2 8v2l-2 2h-2a70 70 0 0 1-10 0l-1-1-1-1v-2a70 70 0 0 1 0-10l1-1 1-1h2a70 70 0 0 1 10 0l1 1 1 1v2a70 70 0 0 1 0 8Z"/><path d="M22 17a5 5 0 1 0 0 10 5 5 0 0 0 0-10Zm0 8a3 3 0 1 1 0-6 3 3 0 0 1 0 6ZM29 17a1 1 0 1 1-3 0 1 1 0 0 1 3 0Z"/></g><defs><clipPath id="a"><path fill="#fff" transform="translate(12 12)" d="M0 0h20v20H0z"/></clipPath></defs></svg>