<svg aria-hidden="true" style="position:absolute;width:0;height:0;overflow:hidden" xmlns="http://www.w3.org/2000/svg"><defs><symbol id="antenna" viewBox="0 0 32 32"><path   d="M30.629 21.943 22.4 13.714l.914-4.571h.914a2.286 2.286 0 1 0-2.281-1.357l-.006-.015-5.029.457L9.141-.001h-.914L6.856 1.828v.457l.457.914c-1.11 2.049-1.762 4.486-1.762 7.076 0 4.209 1.723 8.015 4.503 10.751l.002.002v6.857h-6.4c-1.371 0-2.743.914-2.743 2.743v.914l.914.457h24.229l.457-.457v-.914c0-1.829-.914-2.743-2.286-2.743h-6.4v-2.743c.748.132 1.61.207 2.49.207 2.787 0 5.398-.756 7.638-2.074l-.071.038.457.914.457.457 1.829-1.829v-.914zM23.314 6.4a1.022 1.022 0 0 1 .92 1.826l-.006.003a1.022 1.022 0 0 1-.92-1.826l.006-.003zm-1.371 3.2-.457 3.2-1.371-1.371L21.944 9.6zm-.457-.914-1.829 2.286-1.829-1.829 3.657-.457zM24.229 28.8c.457 0 1.371.914 1.371 1.829v.457H2.286v-.457c0-.914.457-1.829 1.371-1.829h20.571zm-7.772-2.286v1.371h-5.029v-1.371h5.029zm-5.028-.914v-4.114c0-1.371.914-2.286 2.286-2.286 1.829 0 2.743.914 2.743 2.286V25.6h-5.029zm6.4-1.829v-2.286c0-1.829-1.829-3.2-4.114-3.2-1.371 0-2.286.457-3.2 1.829-4.114-4.571-5.029-10.971-2.286-16l18.743 18.743c-2.743 1.371-6.4 1.829-9.143.914zm10.971-.457-.457-.914L7.772 1.829l.914-.457 21.029 21.029-.914.914z"/><path   d="M13.714 20.114a1.83 1.83 0 0 0-.009 3.195l.009.005a1.6 1.6 0 1 0 0-3.2zm.457 2.286a.511.511 0 0 1-.46-.913l.003-.001a.511.511 0 0 1 .46.913l-.003.001z"/></symbol><symbol id="astronaut" viewBox="0 0 32 32"><path   d="m32 4.571-.457-.457-1.829-.457-.914-1.371h-.914l-.914 1.371-1.829.457a.511.511 0 0 0-.46.913l.003.001 1.371 1.371-.457 1.829a.511.511 0 0 0 .913.46l.001-.003 1.829-.914 1.829.914a.458.458 0 0 0 .457-.457V6.399L32 5.028v-.457zm-2.286 1.372-.457.457.457.914-1.371-.457a.457.457 0 0 0-.46.001l.002-.001-.914.457.457-.914-1.371-1.371h1.371l.457-.457.457-.914.457.914.457.457h.914l-.457.914zm-3.657 14.628h-.914v.914h.914v-.914zm0 2.286h-.914v.914h.914v-.914zm1.372-1.371h-1.371v1.371h1.371v-1.371zm-2.286 0h-.914v1.371h.914v-1.371zM22.4 26.514h-.914v.914h.914v-.914zm0 1.829h-.914v1.371h.914v-1.371zm.914-.914H22.4v.914h.914v-.914zm-1.828 0h-1.371v.914h1.371v-.914zM16 24.229h-.914v.914H16v-.914zm0 2.285h-.914v.914H16v-.914zm.914-1.371H16v1.371h.914v-1.371zm-1.828 0h-1.371v1.371h1.371v-1.371zm-9.143-19.2H4.572v1.371h1.371V5.943zm0 2.286H4.572v.914h1.371v-.914zm.914-.915h-.914v.914h.914v-.914zm-2.286 0h-.914v.914h.914v-.914z"/><path   d="m24.686 14.171-1.371-.914-.914.457-1.371.914-1.829 1.371-1.371-.457c2.677-.975 4.555-3.498 4.555-6.459a6.857 6.857 0 0 0-7.79-6.794l.036-.004a6.857 6.857 0 0 0-5.473 10.989l-.012-.017h-3.2l-3.2 1.371-1.829.914a1.843 1.843 0 1 0 1.837 3.195l-.009.005 1.371-.914 2.286-.914h1.371L.916 23.771c-.25.31-.401.709-.401 1.143s.151.833.404 1.146l-.003-.004c.31.25.709.401 1.143.401s.833-.151 1.146-.404l-.004.003 1.371-1.371 1.829-1.371.914.914-3.2 3.2c-.25.31-.401.709-.401 1.143s.151.833.404 1.146l-.003-.004c.31.25.709.401 1.143.401s.833-.151 1.146-.404l-.004.003 4.571-4.571L16 19.656l3.657.457h.457l3.2-2.286 1.371-1.371V14.17zm-22.4 3.658h-.914a.913.913 0 0 1-.001-1.371l.001-.001L2.743 16l.457.914v.457l-.914.457zM5.486 16l-1.371.914L3.658 16v-.457l1.829-.914V16zm15.085-6.857-.457 2.743L16 10.057l-.914-1.371 1.371-5.029c2.743.914 4.114 3.2 4.114 5.486zm-11.428 0c.235-3.088 2.799-5.505 5.927-5.505.167 0 .332.007.495.02l-.021-.001-1.371 4.571c-.914 0-1.829.914-1.829 1.829a1.831 1.831 0 0 0 1.808 1.557c.556 0 1.054-.248 1.39-.64l.002-.002 4.114 1.829a5.942 5.942 0 0 1-10.514-3.65v-.007zm5.943.914-.914.914-.914-.914.914-.914.914.914zm-12.8 15.086h-.457a.458.458 0 0 1 0-.914l.914-.914.457.914-.914.914zm3.2 3.657h-.457a.458.458 0 0 1 0-.914l.914-.914.914.914-1.371.914zm3.657-3.2-1.829 1.371h-.457l-.457-.457 1.829-1.829v-.914L6.4 21.942h-.457l-1.829 1.371-.914-.914 2.743-2.286 4.114 4.571-.914.914zM16 18.286a.458.458 0 0 0-.457.457l-4.571 5.029-4.571-4.114 2.743-3.2a.458.458 0 0 0 0-.914H6.858v-1.371h3.2a6.833 6.833 0 0 0 4.769 1.93c.415 0 .821-.037 1.216-.107l-.042.006h.457l2.286 1.371v.457l.457.914-3.2-.457zm4.114.457-.457-1.829L21.028 16l.457.457.457.914-1.829 1.371zm3.657-3.2-.914.914-.914-1.371.914-.457h.457a.916.916 0 0 1 .457.919v-.005z"/><path   d="m13.714 18.743-2.286-2.286h-.914l-1.829 2.286a.46.46 0 0 0 .001.46l-.001-.002 1.829 2.286a.458.458 0 0 0 .914 0l2.286-2.286a.46.46 0 0 0-.001-.46l.001.002zm-2.743 1.371L9.6 18.743l1.371-1.371 1.371 1.371-1.371 1.371zm6.4-15.085-.457.914s1.829.457 1.829 2.286h.914c0-1.829-1.829-2.743-2.286-3.2zm2.286 4.114h-.914v1.371h.914V9.143z"/></symbol><symbol id="client1" viewBox="0 0 59 32"><path d="m24.348 8 2.435 2.435h-4.522v11.13h11.826v-4.174l2.435 2.087V8H24.348zm9.739 9.043-6.957-6.609h6.957v6.609zM32 19.826h-8v-7.652h.696v7.304H32v.348zm-5.913 3.131-.348.696-.348-.696h-.348l.348.696v.696h.348v-.696l.348-.696zm.348 1.391V24h.348l.348.348-.348-1.391h-.348l-.348 1.391h.348zm.348-1.044v.348h-.348l.348-.348zm1.043.348V24l.348.348.348-.348v.348h.348l-.696-.696.348-.348a.348.348 0 0 0 0-.35l.001.002h-.696v.696zm.348.348h-.348l.348-.348V24zm2.087 0v-.348h-.348V24h-.348v-.696h.696v-.348h-.696l-.348.348V24l.348.348h.348l.348-.348zm1.043 0v-.696a.348.348 0 0 0-.348-.348h-.348v.348l-.348.348.696.696.348-.348zm0-.696V24h-.696v-.696h.696z"/></symbol><symbol id="client2" viewBox="0 0 59 32"><path   d="M28.522 7.652h-.348a9.134 9.134 0 0 0-.357 0h.009c-1.391 0-2.783.348-3.826 1.043v7.652h.348a12.873 12.873 0 0 1 3.804-.695l.022-.001v1.043h-.696a11.099 11.099 0 0 0-4.576 1.42l.055-.029V7.998a10.316 10.316 0 0 1 5.206-1.391h.012-.001a10.13 10.13 0 0 1 1.811.366l-.071-.018v1.043l-1.043-.348h-.348zm1.739 1.044h.696a10.735 10.735 0 0 0 5.27-1.419l-.053.028v9.739a10.31 10.31 0 0 1-4.936 1.241c-.715 0-1.413-.072-2.088-.209l.067.011V8.348c.283.121.63.24.988.335l.056.013zm4.869 0h-.348l-.696.348c-.891.241-1.914.379-2.97.379-.301 0-.6-.011-.896-.033l.039.002h-.348v8h1.043a9.356 9.356 0 0 0 4.226-1.068l-.052.025V8.697zM23.652 21.217a.348.348 0 0 0-.35 0l.002-.001h-.348a.7.7 0 0 0-.346.343l-.002.004v1.739h.348v.348h.348a.696.696 0 0 0 .348-.699v.004h-.348v.348a.348.348 0 0 1-.35 0l.002.001v-1.739a.348.348 0 0 1 .35 0l-.002-.001v.348h.348v-.348a.68.68 0 0 0-.001-.353l.001.005zm2.087 0a.696.696 0 0 0-.699.002l.003-.002h-.348v2.087l.348.348a.68.68 0 0 0 .353-.001l-.005.001.348-.348a.68.68 0 0 0-.001-.353l.001.005v-1.739zm-.348 1.74a.348.348 0 0 1 0 .35l.001-.002a.348.348 0 0 1-.35 0l.002.001a.348.348 0 0 1 0-.35l-.001.002v-1.391a.348.348 0 0 1 .35 0l-.002-.001v1.391zm2.783.695v-2.435h-.348l-.348 1.043-.348-1.043h-.348v2.435h.348v-1.391l.348.696.348-.696v1.391h.348zm2.087-2.435h-1.043v2.435h.348v-1.043h.696v-.348a1.724 1.724 0 0 0-.002-.707l.002.011v-.348zm-.348.696v.348h-.348v-.696h.348v.348zM32 21.217h-.348l-.696 2.435h.348l.348-.696H32v.696h.348L32 21.217zm-.348 1.392v-.696l.348.696h-.348zm2.435 0-.696-1.391v1.043h.348l.348 1.391h.348v-2.435h-.348v1.391zm2.087-1.392-.348 1.043-.348-1.043h-.348l.696 1.391v1.043h.348v-1.043l.348-1.391h-.348zm-13.565 3.131v.348h.348V24h-.348v.348zM24 24l-.348.696h.696L24 24zm1.391.348v.348l-.348-.348h.696L25.391 24l-.348.348v.348a.348.348 0 0 0 .35 0l-.002.001h.348v-.348h-.348zM26.783 24zm1.043 0zm1.391.348L28.869 24v.348l.348.348v-.348zm1.044 0V24h-.348v.696h.348v-.348zm2.435 0h-.348.348zm1.043 0h.348V24h-.348v.348zm1.391 0V24h-.348v.348h.348zm0 0zm1.044 0h.348V24h-.348v.348z"/></symbol><symbol id="client3" viewBox="0 0 59 32"><path   d="M23.652 22.609H24l-.348.348h-.696v-.348h-.348a.696.696 0 0 1 .002-.699l-.002.003h.348v-.348a1.043 1.043 0 0 1 .703.002l-.007-.002.348.348h-.348a.68.68 0 0 0-.353.001l.005-.001h-.348v.696h.696zm2.435-.348v.348h-.348v.348h-.696l-.348-.348v-.696l.348-.348h.696v.348a.7.7 0 0 1 .346.343l.002.004zm-.348 0v-.348a.348.348 0 0 0-.35 0l.002-.001h-.696v.696a.348.348 0 0 0 .35 0l-.002.001h.696v-.348zm1.739.348.696-1.043v.348l-.696.696-.696-.696v1.043-1.391h.348l.348 1.043zm1.739-.348v.696-1.391h.696v.696l-.348.348-.348-.348zm0 0h.696v-.348h-.696v.348zm2.783.696h-.348v-.348h-.696l-.348.348.348-1.391h.348L32 22.957zm-1.043-.348h.348v-.696l-.348.696zm1.739-1.044.696 1.043v-1.043h.348v1.391h-.348l-.696-1.043v1.043-1.391zm2.434.696v.696h-.348v-.696l-.348-.696h.348v.696a.68.68 0 0 1 .353.001l-.005-.001zm-7.652-2.783c1.391-.348 2.435-1.043 3.13-2.087 1.043-1.043 1.391-2.435 1.391-3.478l-1.391-1.391c0 1.391 0 2.783-.696 3.826-.348 1.391-1.391 2.435-2.435 3.13z"/><path   d="M26.783 19.478c1.391-.696 2.435-1.739 2.783-3.13.696-1.391.696-2.783.348-4.174l-2.087-1.739a7.567 7.567 0 0 1 1.02 3.817 7.625 7.625 0 0 1-2.067 5.231l.004-.004zm6.956-4.174c-.348 1.391-1.043 2.435-2.435 3.478l-1.043.696 2.435-1.391L34.435 16l-.696-.696z"/><path   d="m33.391 14.957-1.043-1.043c0 1.391-.696 2.435-1.391 3.478s-1.391 1.739-2.783 2.087h1.043L32 17.74l1.391-2.783zM27.13 9.739l-1.391-1.043c-1.391.348-2.435 1.043-3.13 2.087-.696.696-1.043 2.087-1.043 3.13 0 1.391.348 2.435 1.391 3.478.696 1.043 2.087 1.739 3.478 2.087 1.391-1.391 2.087-3.13 2.087-4.87s-.348-3.478-1.391-4.87zm9.392 5.218c0-1.739-.696-3.13-1.739-4.174a6.924 6.924 0 0 0-4.652-1.784c-.826 0-1.618.144-2.353.408l.049-.015 8.348 7.652.348-2.087z"/></symbol><symbol id="client4" viewBox="0 0 59 32"><path   d="M19.478 12.87c-.696 0-1.391.696-1.391 1.391s.696 1.391 1.391 1.391c1.043 0 1.391-.696 1.391-1.391s-.348-1.391-1.391-1.391zm11.131-.348c0-1.043-.348-2.087-1.043-2.783l-3.13-1.043c-1.391 0-2.435.348-3.13 1.043-1.043.696-1.391 1.739-1.391 2.783v5.565s8.696-.696 8.696-5.565zm-15.652 7.652c0 .696.348 1.391 1.043 1.739l2.087.696 2.087-.696c.696-.348.696-1.043.696-1.739V16s-5.913.696-5.913 4.174zm3.13.696-.696-.348v-.348l-.348-.348.348-.348h1.391a.695.695 0 0 1-.343 1.042l-.005.002-.348.348zM24 20.174h-.348v.696h-.348v-1.391h1.043v.348h-.696v.348h.348zm1.739 0-.348.348a.7.7 0 0 1-.343.346l-.004.002h-.348l-.348-.348v-.696a.696.696 0 0 1 .699-.348h-.004.348v.348l.348.348zm-.348 0v-.348h-.696v.696l.348.348.348-.348v-.348zm1.044.348v-.348h-.348l-.348-.348v-.348h1.043v.348h-.696l.348.348h.348v.696h-1.043v-.348h.348l.348.348v-.348zm1.739-.696h-.348v1.043h-.348v-1.043h-.348v-.348h1.043v.348zm1.043.348h-.348v.696h-.348v-1.391h1.043v.348h-.696v.348h.348zm1.044.348h-.348v.348h-.348v-1.391h1.043v.696h-.348l.348.696h-.348v-.348zm-.348-.348h.348v-.348h-.348v.348zm1.739.348v.348h-.348v-1.391h1.043v.348h.348l-.696.696h-.348zm0-.348h.696v-.348h-.696v.348zm2.087 0h-.696v.696h-.348v-1.391h1.043v.348h-.696v.348h.696zm1.391-.348h-.348v1.043h-.348v-1.043h-.696v-.348h1.391v.348zm1.044.348h-.696v.696h-.348v-1.391h1.043v.348h-.696v.348h.696zm.696.348v.348h-.348v-1.391h1.043v.696h-.348l.348.696h-.348l-.348-.348zm0-.348h.348v-.348h-.348v.348zm1.739.348-.348-.348h-.348v-.696h.696l.348.348h-.696v.348h.348l.348.348-.348.348h-.696l-.348-.348h.348l.348.348.348-.348z"/></symbol><symbol id="client5" viewBox="0 0 59 32"><path   d="M20.522 21.217v.696h-1.739v-2.087h1.043l.348.348h.348v.696h-.348l.348.348zm-1.392-.347h.696l.348-.348-.348-.348h-.696v.696zm.696.695h.348v-.348h-1.043v.348h.696zm2.783.348-.696-.696h-.348v.696h-.348v-2.087h1.043l.696.696v.348l-.696.348.696.696h-.348zm-1.044-1.043h.696l.348-.348h-.348v-.348h-.696v.696zm3.478.695H24v.348h-.696l1.043-2.087h.348l1.043 2.087h-.696v-.348zm0-.348-.348-.696-.348.696h.696zm3.131.696h-.348l-1.043-1.391v1.391h-.348v-2.087h.348l1.043 1.391v-1.391h.348v2.087zm2.783-.348-.348.348h-1.391v-2.087h.696l.696.348.348.348a1.047 1.047 0 0 1-.002 1.049l.003-.005zm-.696 0 .348-.696-.696-.696h-.348v1.391h.696zM25.391 8s5.913 2.087 5.913 5.217v4.87s-6.261-2.087-5.913-4.87V8zm11.131 9.043c1.391-.696 2.783-1.391 4.174-1.391v-1.739c-1.739.696-3.13 1.739-4.174 3.13z"/><path   d="M35.826 17.391c1.043-1.739 2.783-3.13 4.87-3.826V9.043S32 12.173 32 16.347v7.304l1.043-.348v-.696c.348-2.087 1.391-3.826 2.783-5.217z"/><path   d="m35.13 20.174.348-1.391a6.58 6.58 0 0 0-1.739 4.159l-.001.015 1.739-.696-.348-2.087zm.348 0v2.087c2.435-1.391 5.217-3.478 5.217-5.913-1.739 0-3.478.696-4.522 1.739l-.696 2.087z"/></symbol><symbol id="client6" viewBox="0 0 59 32"><path   d="M29.565 14.957V12.87l.696-.348h.696l.348.696v.348h-.696v-.696h-.348v2.087h.348v-.696h.696v.348l-.348.348-.696.348-.696-.348zm2.435 0v-2.435h1.391l.348.696v1.043l-.348.696-.696.348-.696-.348zm1.043 0V12.87h-.348l-.348.348v1.391l.348.348a.348.348 0 0 0 .35 0l-.002.001zm1.392-2.435h.696l.348 2.087.348-2.087h.696v2.783h-.348v-2.087l-.348 2.087h-.348l-.696-2.087v2.087h-.348v-2.783zm2.782 0h1.043c.696 0 .696.348.696.696 0 .696 0 .696-.696.696h-.348v1.391h-.696v-2.783zm1.044 1.043h.348v-.696h-.696v.696h.348zM40 12.522h.696l.696 2.783h-.696v-.696H40v.696h-.696L40 12.522zm.348 1.739v-1.043L40 14.261h.348zm1.391-1.739h.348l1.043 1.739v-1.739h.348v2.783h-.348l-.696-1.739v1.739h-.696v-2.783zm2.783 1.739-.696-1.739h.696l.348 1.043.348-1.043h.696l-.696 1.739v1.043h-.696v-1.043zm-13.913 2.435h-.348v1.043h-.348v-1.043h.696zM32 17.739l-.348-.348h-.696v.348h-.348l.696-1.043h.348L32 17.739zm-.696-.348h.348v-.696h-.348v.696zm1.739.348h.348v-.696h.348v.696a1.035 1.035 0 0 1-.354 0l.006.001h-.696l-.348-.348v-.348l.348-.348a1.043 1.043 0 0 1 .703.002l-.007-.002a.68.68 0 0 1 .353.001l-.005-.001h-.348a.68.68 0 0 0-.353.001l.005-.001h-.348v1.043a.348.348 0 0 0 .35 0l-.002.001zm2.087 0h-.348v-1.043h.348v1.043zm1.392 0h-.348v-1.043h.348v1.043zm.695-1.043.696.696v-.696h.348v1.043h-.348l-.696-1.043v1.043h-.348v-1.043h.348zm2.435 0h-.696v.348h.696v.348h-.696v.348h-.348v-1.043h1.043zm-21.217-8 9.043 2.087v7.652l-9.043-2.087V8.696zM18.087 8v8.696l10.087 2.435v-8.696L18.087 8z"/><path   d="m23.304 23.304-10.087-2.435v-9.043l10.087 2.783v8.696z"/><path   d="m18.087 8.348 8.696 2.435-3.478 3.13-9.043-2.087 3.826-3.478zm0-.348-4.87 3.826 10.087 2.783 4.87-4.174L18.087 8zM24 22.609l4.174-3.478L24 18.088v4.522z"/></symbol><symbol id="clock" viewBox="0 0 32 32"><path  d="M31.086 15.086C30.944 6.864 24.245.253 16.002.253 7.67.253.916 7.007.916 15.339c0 6.698 4.365 12.376 10.405 14.346l.107.03h.457l.457-.457 3.657-11.886a1.885 1.885 0 1 0-.927-3.655l.013-.003-5.029-5.029a.645.645 0 0 0-1.103.457c0 .179.072.34.189.457l5.029 5.029c-.457.457 0 1.829.457 2.286l-3.657 11.429C5.4 26.35 1.485 21.116 1.485 14.969 1.485 7.142 7.83.798 15.656.798s14.171 6.345 14.171 14.171c0 5.715-3.383 10.639-8.255 12.881l-.088.036v-1.829a.686.686 0 1 0-1.372 0l-3.657 3.2a.686.686 0 1 0 0 1.372L21.484 32a.645.645 0 0 0 1.103-.457.643.643 0 0 0-.189-.457l-.457-1.829c5.486-2.286 9.143-7.771 9.143-14.171zM16 14.629a.686.686 0 1 1 0 1.372.686.686 0 1 1 0-1.372zm2.286 15.085 1.829-2.286.914 3.2-2.743-.914z"/><path   d="M15.543 3.2v1.371a.458.458 0 0 0 .914 0V3.2a.458.458 0 0 0-.914 0zM3.657 14.629a.686.686 0 1 0 0 1.372h1.371a.686.686 0 1 0 0-1.372H3.657zM27.886 16a.686.686 0 1 0 0-1.372h-.914a.686.686 0 1 0 0 1.372h.914z"/></symbol><symbol id="diagram" viewBox="0 0 32 32"><path   d="M15.086 15.086H16v4.571h-.914v-4.571zm4.114 1.828h.914v2.743H19.2v-2.743zm-8.686 1.829h1.371v.914h-1.371v-.914zm-3.2-.457h1.371v1.371H7.314v-1.371z"/><path   d="M1.371 28.343h25.6c.914 0 1.829-.914 1.829-1.829v-1.829c0-.914-.914-1.829-1.829-1.829h-.457V9.599l3.2-2.743a1.83 1.83 0 1 0-.91-.903l-.005-.011-2.286 2.286V6.857c0-.914-.457-1.371-1.371-1.371H3.656c-.914 0-1.371.457-1.371 1.371v16h-.914c-.457 0-1.371.914-1.371 1.829v1.829c0 .914.914 1.829 1.371 1.829zm28.8-23.314a.458.458 0 0 1 0 .914.458.458 0 0 1 0-.914zM3.2 6.857l.457-.457h21.486l.457.457v2.286l-.914.914V8.228l-.914-.914h-19.2l-.457.914v13.257l.457.457h19.2l.914-.457v-9.6l.914-1.371v12.343H3.2v-16zm4.571 6.857a1.533 1.533 0 1 0 1.379 2.738l-.009.004 1.829.914h.457l4.114-4.571 3.657 3.2h.914l3.2-3.2v8.229H5.483V8.685h17.829v2.743l-3.657 3.2-3.657-2.743h-.914l-4.114 4.571-1.371-.914c0-.914-.914-1.829-1.829-1.829zm.915 1.829a.686.686 0 1 1-1.372 0 .686.686 0 1 1 1.372 0zm3.2 8.686h5.029v.457l-.457.457h-4.114l-.457-.457v-.457zm-10.972.457.457-.457h9.143v.457c0 .914.914 1.371 1.829 1.371h4.114c.914 0 1.829-.457 1.829-1.371v-.457h8.686l.914.457v1.829l-.914.914h-25.6l-.457-.914v-1.829z"/></symbol><symbol id="ellipse1" viewBox="0 0 32 32"><path   opacity=".1" d="M32 16c.009.2.014.434.014.67 0 8.837-7.163 16-16 16a15.957 15.957 0 0 1-11.643-5.025l-.007-.008a15.96 15.96 0 0 1-5.033-11.65c0-8.837 7.163-16 16-16 .236 0 .47.005.703.015l-.033-.001c8.837 0 16 7.163 16 16z"/><path   d="M23.273 13.091v-2.182l-1.455-.727-.727-.727-2.182-.727c-2.846.027-5.61.291-8.3.772l.3-.044-1.455 1.455-.727 2.182c.027 2.846.291 5.61.772 8.3l-.044-.3 1.455 1.455 2.182.727a53.47 53.47 0 0 0 8.316-.773l-.316.045 2.182-1.455V18.91a54.066 54.066 0 0 0-.006-5.958l.006.14zm-1.455 5.818v1.455l-1.455 1.455h-1.455a51.519 51.519 0 0 1-7.44-.01l.168.01-1.455-1.455v-1.455a51.519 51.519 0 0 1 .01-7.44l-.01.168 1.455-1.455h1.455a51.519 51.519 0 0 1 7.44.01l-.168-.01 1.455 1.455v1.455a51.312 51.312 0 0 1-.007 5.957l.007-.139z"/><path   d="M16 12.364a3.636 3.636 0 0 0 0 7.272 3.636 3.636 0 0 0 0-7.272zm0 5.818a2.182 2.182 0 0 1 0-4.364 2.182 2.182 0 0 1 0 4.364zm5.091-5.818a1.09 1.09 0 1 1-2.182 0 1.09 1.09 0 1 1 2.182 0z"/></symbol><symbol id="ellipse2" viewBox="0 0 32 32"><path fill="#2196f3" style="fill:var(--color2, #2196f3)" d="M32 16c.009.2.014.434.014.67 0 8.837-7.163 16-16 16a15.957 15.957 0 0 1-11.643-5.025l-.007-.008a15.96 15.96 0 0 1-5.033-11.65c0-8.837 7.163-16 16-16 .236 0 .47.005.703.015l-.033-.001c8.837 0 16 7.163 16 16z"/><path fill="#fff" style="fill:var(--color4, #fff)" d="M23.273 11.636h-1.455l.727-1.455-1.455.727a2.934 2.934 0 0 0-2.545-1.477 2.932 2.932 0 0 0-2.538 4.401l-.008-.014c-2.909 0-5.091-1.455-6.545-2.909a2.91 2.91 0 0 0 1.438 3.629l.017.008H9.454c0 1.455.727 2.182 2.182 2.909a2.933 2.933 0 0 1-1.475-.005l.02.005c.727.727 1.455 2.182 2.909 2.182a5.762 5.762 0 0 1-3.066.874c-.46 0-.907-.053-1.337-.154l.039.008 4.364 1.455a8.727 8.727 0 0 0 8.727-8.727l1.455-1.455z"/></symbol><symbol id="ellipse3" viewBox="0 0 32 32"><path fill="#fff" style="fill:var(--color4, #fff)" opacity=".1" d="M32 16c.009.2.014.434.014.67 0 8.837-7.163 16-16 16a15.957 15.957 0 0 1-11.643-5.025l-.007-.008a15.96 15.96 0 0 1-5.033-11.65c0-8.837 7.163-16 16-16 .236 0 .47.005.703.015l-.033-.001c8.837 0 16 7.163 16 16z"/><path fill="#fff" style="fill:var(--color4, #fff)" d="M18.182 10.909h1.455V8.727h-2.182c-1.455 0-2.909 1.455-2.909 3.636v2.182h-2.182v2.182h2.182v6.545h2.909v-6.545h1.455l.727-2.182h-2.182v-2.182l.727-1.455z"/></symbol><symbol id="ellipse4" viewBox="0 0 32 32"><path fill="#fff" style="fill:var(--color4, #fff)" opacity=".1" d="M32 16c.009.2.014.434.014.67 0 8.837-7.163 16-16 16a15.957 15.957 0 0 1-11.643-5.025l-.007-.008a15.96 15.96 0 0 1-5.033-11.65c0-8.837 7.163-16 16-16 .236 0 .47.005.703.015l-.033-.001c8.837 0 16 7.163 16 16z"/><path fill="#fff" style="fill:var(--color4, #fff)" d="M23.273 23.273v-5.091c0-2.909-.727-5.091-3.636-5.091l-2.909 1.455v-.727h-2.909v9.455h2.909v-5.091c0-.727.727-2.182 2.182-2.182s1.455 1.455 1.455 2.182v5.091h2.909zM8.727 13.818h2.909v9.455H8.727v-9.455zm1.455-5.091-1.455 1.455c0 1.455.727 2.182 1.455 2.182 1.455 0 2.182-.727 2.182-2.182 0-.727-.727-1.455-2.182-1.455z"/></symbol><symbol id="envelope" viewBox="0 0 43 32"><path   d="M40 0H5.333L0 5.333v24L5.333 32H40l2.667-2.667v-24L40 0zm0 2.667-18.667 16-18.667-16h37.333zm0 26.666H2.667v-24l18.667 16 18.667-16v24z"/></symbol><symbol id="facebook" viewBox="0 0 32 32"><path fill="#fff" style="fill:var(--color4, #fff)" d="M32 16c.009.2.014.434.014.67 0 8.837-7.163 16-16 16a15.957 15.957 0 0 1-11.643-5.025l-.007-.008a15.96 15.96 0 0 1-5.033-11.65c0-8.837 7.163-16 16-16 .236 0 .47.005.703.015l-.033-.001c8.837 0 16 7.163 16 16z"/><path fill="#afb1b8" style="fill:var(--color3, #afb1b8)" d="M18.182 10.909h1.455V8.727h-2.182c-1.455 0-2.909 1.455-2.909 3.636v2.182h-2.182v2.182h2.182v6.545h2.909v-6.545h1.455l.727-2.182h-2.182v-2.182l.727-1.455z"/></symbol><symbol id="group1" viewBox="0 0 28 32"><path fill="#afb1b8" style="fill:var(--color3, #afb1b8)" d="m4.085 0 4.766 4.766H0v21.787h23.149v-8.17l4.766 4.085V0H4.085zm19.064 17.702L9.532 4.766h13.617v12.936zm-4.085 5.447H3.404V8.17h1.362v14.298h14.298v.681zM7.489 29.277l-.681 1.362-.681-1.362h-.681l.681 1.362v1.362h.681v-1.362l.681-1.362zM8.17 32v-.681h.681l.681.681-.681-2.723H8.17L7.489 32h.681zm.681-2.043v.681H8.17l.681-.681zm2.043.681v.681l.681.681.681-.681V32h.681l-1.362-1.362.681-.681a.677.677 0 0 0-.002-.684l.002.003h-1.362v1.362zm.68.681h-.681l.681-.681v.681zm4.086 0v-.681h-.681v.681h-.681v-1.362h1.362v-.681h-1.362l-.681.681v1.362l.681.681h.681l.681-.681zm2.042 0v-1.362a.681.681 0 0 0-.681-.681h-.681v.681l-.681.681L17.021 32l.681-.681zm0-1.362v1.362H16.34v-1.362h1.362z"/></symbol></defs></svg>